<mxfile host="65bd71144e">
    <diagram id="C6it1oYymChb_5ZEDnDE" name="Страница 1">
        <mxGraphModel dx="2110" dy="1753" grid="0" gridSize="10" guides="1" tooltips="1" connect="1" arrows="1" fold="1" page="0" pageScale="1" pageWidth="827" pageHeight="1169" math="0" shadow="0">
            <root>
                <mxCell id="0"/>
                <mxCell id="1" parent="0"/>
                <mxCell id="13" value="Users" style="shape=table;startSize=30;container=1;collapsible=1;childLayout=tableLayout;fixedRows=1;rowLines=1;fontStyle=1;align=center;resizeLast=1;resizeLastRow=0;enumerate=1;fillColor=#60a917;fontColor=#ffffff;strokeColor=#2D7600;noLabel=0;autosize=1;treeFolding=1;treeMoving=1;" vertex="1" parent="1">
                    <mxGeometry x="25" y="351" width="535.8095238095239" height="277.1283643892339" as="geometry"/>
                </mxCell>
                <mxCell id="14" value="" style="shape=tableRow;horizontal=0;startSize=0;swimlaneHead=0;swimlaneBody=0;fillColor=none;collapsible=0;dropTarget=0;points=[[0,0.5],[1,0.5]];portConstraint=eastwest;top=0;left=0;right=0;bottom=1;" vertex="1" parent="13">
                    <mxGeometry y="30" width="535.8095238095239" height="35" as="geometry"/>
                </mxCell>
                <mxCell id="63" value="Key" style="shape=partialRectangle;connectable=0;fillColor=none;top=0;left=0;bottom=0;right=0;fontStyle=1;overflow=hidden;" vertex="1" parent="14">
                    <mxGeometry width="63.93103448275866" height="35" as="geometry">
                        <mxRectangle width="63.93103448275866" height="35" as="alternateBounds"/>
                    </mxGeometry>
                </mxCell>
                <mxCell id="15" value="Type" style="shape=partialRectangle;connectable=0;fillColor=none;top=0;left=0;bottom=0;right=0;fontStyle=1;overflow=hidden;" vertex="1" parent="14">
                    <mxGeometry x="63.93103448275866" width="63.93103448275866" height="35" as="geometry">
                        <mxRectangle width="63.93103448275866" height="35" as="alternateBounds"/>
                    </mxGeometry>
                </mxCell>
                <mxCell id="16" value="Column" style="shape=partialRectangle;connectable=0;fillColor=none;top=0;left=0;bottom=0;right=0;align=left;spacingLeft=6;fontStyle=5;overflow=hidden;" vertex="1" parent="14">
                    <mxGeometry x="127.86206896551732" width="140.54702194357344" height="35" as="geometry">
                        <mxRectangle width="140.54702194357344" height="35" as="alternateBounds"/>
                    </mxGeometry>
                </mxCell>
                <mxCell id="70" value="NULLABLE / UNIQUE" style="shape=partialRectangle;connectable=0;fillColor=none;top=0;left=0;bottom=0;right=0;align=left;spacingLeft=6;fontStyle=5;overflow=hidden;" vertex="1" parent="14">
                    <mxGeometry x="268.40909090909076" width="142.9387351778659" height="35" as="geometry">
                        <mxRectangle width="142.9387351778659" height="35" as="alternateBounds"/>
                    </mxGeometry>
                </mxCell>
                <mxCell id="77" value="DESCRIPTION" style="shape=partialRectangle;connectable=0;fillColor=none;top=0;left=0;bottom=0;right=0;align=left;spacingLeft=6;fontStyle=5;overflow=hidden;" vertex="1" parent="14">
                    <mxGeometry x="411.3478260869567" width="124.46169772256718" height="35" as="geometry">
                        <mxRectangle width="124.46169772256718" height="35" as="alternateBounds"/>
                    </mxGeometry>
                </mxCell>
                <mxCell id="84" style="shape=tableRow;horizontal=0;startSize=0;swimlaneHead=0;swimlaneBody=0;fillColor=none;collapsible=0;dropTarget=0;points=[[0,0.5],[1,0.5]];portConstraint=eastwest;top=0;left=0;right=0;bottom=0;" vertex="1" parent="13">
                    <mxGeometry y="65" width="535.8095238095239" height="30" as="geometry"/>
                </mxCell>
                <mxCell id="85" value="PK" style="shape=partialRectangle;connectable=0;fillColor=none;top=0;left=0;bottom=0;right=0;editable=1;overflow=hidden;" vertex="1" parent="84">
                    <mxGeometry width="63.93103448275866" height="30" as="geometry">
                        <mxRectangle width="63.93103448275866" height="30" as="alternateBounds"/>
                    </mxGeometry>
                </mxCell>
                <mxCell id="86" value="UUID" style="shape=partialRectangle;connectable=0;fillColor=none;top=0;left=0;bottom=0;right=0;editable=1;overflow=hidden;" vertex="1" parent="84">
                    <mxGeometry x="63.93103448275866" width="63.93103448275866" height="30" as="geometry">
                        <mxRectangle width="63.93103448275866" height="30" as="alternateBounds"/>
                    </mxGeometry>
                </mxCell>
                <mxCell id="87" value="id" style="shape=partialRectangle;connectable=0;fillColor=none;top=0;left=0;bottom=0;right=0;align=left;spacingLeft=6;overflow=hidden;labelBackgroundColor=none;" vertex="1" parent="84">
                    <mxGeometry x="127.86206896551732" width="140.54702194357344" height="30" as="geometry">
                        <mxRectangle width="140.54702194357344" height="30" as="alternateBounds"/>
                    </mxGeometry>
                </mxCell>
                <mxCell id="88" value="NO / YES" style="shape=partialRectangle;connectable=0;fillColor=none;top=0;left=0;bottom=0;right=0;align=left;spacingLeft=6;overflow=hidden;labelBackgroundColor=none;" vertex="1" parent="84">
                    <mxGeometry x="268.40909090909076" width="142.9387351778659" height="30" as="geometry">
                        <mxRectangle width="142.9387351778659" height="30" as="alternateBounds"/>
                    </mxGeometry>
                </mxCell>
                <mxCell id="89" value="" style="shape=partialRectangle;connectable=0;fillColor=none;top=0;left=0;bottom=0;right=0;align=left;spacingLeft=6;overflow=hidden;labelBackgroundColor=none;" vertex="1" parent="84">
                    <mxGeometry x="411.3478260869567" width="124.46169772256718" height="30" as="geometry">
                        <mxRectangle width="124.46169772256718" height="30" as="alternateBounds"/>
                    </mxGeometry>
                </mxCell>
                <mxCell id="20" value="" style="shape=tableRow;horizontal=0;startSize=0;swimlaneHead=0;swimlaneBody=0;fillColor=none;collapsible=0;dropTarget=0;points=[[0,0.5],[1,0.5]];portConstraint=eastwest;top=0;left=0;right=0;bottom=0;" vertex="1" parent="13">
                    <mxGeometry y="95" width="535.8095238095239" height="30" as="geometry"/>
                </mxCell>
                <mxCell id="64" value="" style="shape=partialRectangle;connectable=0;fillColor=none;top=0;left=0;bottom=0;right=0;editable=1;overflow=hidden;" vertex="1" parent="20">
                    <mxGeometry width="63.93103448275866" height="30" as="geometry">
                        <mxRectangle width="63.93103448275866" height="30" as="alternateBounds"/>
                    </mxGeometry>
                </mxCell>
                <mxCell id="21" value="String" style="shape=partialRectangle;connectable=0;fillColor=none;top=0;left=0;bottom=0;right=0;editable=1;overflow=hidden;" vertex="1" parent="20">
                    <mxGeometry x="63.93103448275866" width="63.93103448275866" height="30" as="geometry">
                        <mxRectangle width="63.93103448275866" height="30" as="alternateBounds"/>
                    </mxGeometry>
                </mxCell>
                <mxCell id="22" value="username" style="shape=partialRectangle;connectable=0;fillColor=none;top=0;left=0;bottom=0;right=0;align=left;spacingLeft=6;overflow=hidden;labelBackgroundColor=none;" vertex="1" parent="20">
                    <mxGeometry x="127.86206896551732" width="140.54702194357344" height="30" as="geometry">
                        <mxRectangle width="140.54702194357344" height="30" as="alternateBounds"/>
                    </mxGeometry>
                </mxCell>
                <mxCell id="71" value="YES / YES" style="shape=partialRectangle;connectable=0;fillColor=none;top=0;left=0;bottom=0;right=0;align=left;spacingLeft=6;overflow=hidden;labelBackgroundColor=none;" vertex="1" parent="20">
                    <mxGeometry x="268.40909090909076" width="142.9387351778659" height="30" as="geometry">
                        <mxRectangle width="142.9387351778659" height="30" as="alternateBounds"/>
                    </mxGeometry>
                </mxCell>
                <mxCell id="78" value="" style="shape=partialRectangle;connectable=0;fillColor=none;top=0;left=0;bottom=0;right=0;align=left;spacingLeft=6;overflow=hidden;labelBackgroundColor=none;" vertex="1" parent="20">
                    <mxGeometry x="411.3478260869567" width="124.46169772256718" height="30" as="geometry">
                        <mxRectangle width="124.46169772256718" height="30" as="alternateBounds"/>
                    </mxGeometry>
                </mxCell>
                <mxCell id="17" value="" style="shape=tableRow;horizontal=0;startSize=0;swimlaneHead=0;swimlaneBody=0;fillColor=none;collapsible=0;dropTarget=0;points=[[0,0.5],[1,0.5]];portConstraint=eastwest;top=0;left=0;right=0;bottom=0;" vertex="1" parent="13">
                    <mxGeometry y="125" width="535.8095238095239" height="30" as="geometry"/>
                </mxCell>
                <mxCell id="65" style="shape=partialRectangle;connectable=0;fillColor=none;top=0;left=0;bottom=0;right=0;editable=1;overflow=hidden;" vertex="1" parent="17">
                    <mxGeometry width="63.93103448275866" height="30" as="geometry">
                        <mxRectangle width="63.93103448275866" height="30" as="alternateBounds"/>
                    </mxGeometry>
                </mxCell>
                <mxCell id="18" value="String" style="shape=partialRectangle;connectable=0;fillColor=none;top=0;left=0;bottom=0;right=0;editable=1;overflow=hidden;" vertex="1" parent="17">
                    <mxGeometry x="63.93103448275866" width="63.93103448275866" height="30" as="geometry">
                        <mxRectangle width="63.93103448275866" height="30" as="alternateBounds"/>
                    </mxGeometry>
                </mxCell>
                <mxCell id="19" value="password" style="shape=partialRectangle;connectable=0;fillColor=none;top=0;left=0;bottom=0;right=0;align=left;spacingLeft=6;overflow=hidden;" vertex="1" parent="17">
                    <mxGeometry x="127.86206896551732" width="140.54702194357344" height="30" as="geometry">
                        <mxRectangle width="140.54702194357344" height="30" as="alternateBounds"/>
                    </mxGeometry>
                </mxCell>
                <mxCell id="72" value="NO / NO" style="shape=partialRectangle;connectable=0;fillColor=none;top=0;left=0;bottom=0;right=0;align=left;spacingLeft=6;overflow=hidden;" vertex="1" parent="17">
                    <mxGeometry x="268.40909090909076" width="142.9387351778659" height="30" as="geometry">
                        <mxRectangle width="142.9387351778659" height="30" as="alternateBounds"/>
                    </mxGeometry>
                </mxCell>
                <mxCell id="79" value="" style="shape=partialRectangle;connectable=0;fillColor=none;top=0;left=0;bottom=0;right=0;align=left;spacingLeft=6;overflow=hidden;" vertex="1" parent="17">
                    <mxGeometry x="411.3478260869567" width="124.46169772256718" height="30" as="geometry">
                        <mxRectangle width="124.46169772256718" height="30" as="alternateBounds"/>
                    </mxGeometry>
                </mxCell>
                <mxCell id="23" value="" style="shape=tableRow;horizontal=0;startSize=0;swimlaneHead=0;swimlaneBody=0;fillColor=none;collapsible=0;dropTarget=0;points=[[0,0.5],[1,0.5]];portConstraint=eastwest;top=0;left=0;right=0;bottom=0;" vertex="1" parent="13">
                    <mxGeometry y="155" width="535.8095238095239" height="30" as="geometry"/>
                </mxCell>
                <mxCell id="66" style="shape=partialRectangle;connectable=0;fillColor=none;top=0;left=0;bottom=0;right=0;editable=1;overflow=hidden;" vertex="1" parent="23">
                    <mxGeometry width="63.93103448275866" height="30" as="geometry">
                        <mxRectangle width="63.93103448275866" height="30" as="alternateBounds"/>
                    </mxGeometry>
                </mxCell>
                <mxCell id="24" value="String" style="shape=partialRectangle;connectable=0;fillColor=none;top=0;left=0;bottom=0;right=0;editable=1;overflow=hidden;" vertex="1" parent="23">
                    <mxGeometry x="63.93103448275866" width="63.93103448275866" height="30" as="geometry">
                        <mxRectangle width="63.93103448275866" height="30" as="alternateBounds"/>
                    </mxGeometry>
                </mxCell>
                <mxCell id="25" value="email" style="shape=partialRectangle;connectable=0;fillColor=none;top=0;left=0;bottom=0;right=0;align=left;spacingLeft=6;overflow=hidden;" vertex="1" parent="23">
                    <mxGeometry x="127.86206896551732" width="140.54702194357344" height="30" as="geometry">
                        <mxRectangle width="140.54702194357344" height="30" as="alternateBounds"/>
                    </mxGeometry>
                </mxCell>
                <mxCell id="73" value="NO / YES" style="shape=partialRectangle;connectable=0;fillColor=none;top=0;left=0;bottom=0;right=0;align=left;spacingLeft=6;overflow=hidden;" vertex="1" parent="23">
                    <mxGeometry x="268.40909090909076" width="142.9387351778659" height="30" as="geometry">
                        <mxRectangle width="142.9387351778659" height="30" as="alternateBounds"/>
                    </mxGeometry>
                </mxCell>
                <mxCell id="80" value="" style="shape=partialRectangle;connectable=0;fillColor=none;top=0;left=0;bottom=0;right=0;align=left;spacingLeft=6;overflow=hidden;" vertex="1" parent="23">
                    <mxGeometry x="411.3478260869567" width="124.46169772256718" height="30" as="geometry">
                        <mxRectangle width="124.46169772256718" height="30" as="alternateBounds"/>
                    </mxGeometry>
                </mxCell>
                <mxCell id="41" style="shape=tableRow;horizontal=0;startSize=0;swimlaneHead=0;swimlaneBody=0;fillColor=none;collapsible=0;dropTarget=0;points=[[0,0.5],[1,0.5]];portConstraint=eastwest;top=0;left=0;right=0;bottom=0;" vertex="1" parent="13">
                    <mxGeometry y="185" width="535.8095238095239" height="30" as="geometry"/>
                </mxCell>
                <mxCell id="67" style="shape=partialRectangle;connectable=0;fillColor=none;top=0;left=0;bottom=0;right=0;editable=1;overflow=hidden;" vertex="1" parent="41">
                    <mxGeometry width="63.93103448275866" height="30" as="geometry">
                        <mxRectangle width="63.93103448275866" height="30" as="alternateBounds"/>
                    </mxGeometry>
                </mxCell>
                <mxCell id="42" value="String" style="shape=partialRectangle;connectable=0;fillColor=none;top=0;left=0;bottom=0;right=0;editable=1;overflow=hidden;" vertex="1" parent="41">
                    <mxGeometry x="63.93103448275866" width="63.93103448275866" height="30" as="geometry">
                        <mxRectangle width="63.93103448275866" height="30" as="alternateBounds"/>
                    </mxGeometry>
                </mxCell>
                <mxCell id="43" value="phone" style="shape=partialRectangle;connectable=0;fillColor=none;top=0;left=0;bottom=0;right=0;align=left;spacingLeft=6;overflow=hidden;" vertex="1" parent="41">
                    <mxGeometry x="127.86206896551732" width="140.54702194357344" height="30" as="geometry">
                        <mxRectangle width="140.54702194357344" height="30" as="alternateBounds"/>
                    </mxGeometry>
                </mxCell>
                <mxCell id="74" value="YES / YES" style="shape=partialRectangle;connectable=0;fillColor=none;top=0;left=0;bottom=0;right=0;align=left;spacingLeft=6;overflow=hidden;" vertex="1" parent="41">
                    <mxGeometry x="268.40909090909076" width="142.9387351778659" height="30" as="geometry">
                        <mxRectangle width="142.9387351778659" height="30" as="alternateBounds"/>
                    </mxGeometry>
                </mxCell>
                <mxCell id="81" value="" style="shape=partialRectangle;connectable=0;fillColor=none;top=0;left=0;bottom=0;right=0;align=left;spacingLeft=6;overflow=hidden;" vertex="1" parent="41">
                    <mxGeometry x="411.3478260869567" width="124.46169772256718" height="30" as="geometry">
                        <mxRectangle width="124.46169772256718" height="30" as="alternateBounds"/>
                    </mxGeometry>
                </mxCell>
                <mxCell id="44" style="shape=tableRow;horizontal=0;startSize=0;swimlaneHead=0;swimlaneBody=0;fillColor=none;collapsible=0;dropTarget=0;points=[[0,0.5],[1,0.5]];portConstraint=eastwest;top=0;left=0;right=0;bottom=0;" vertex="1" parent="13">
                    <mxGeometry y="215" width="535.8095238095239" height="30" as="geometry"/>
                </mxCell>
                <mxCell id="68" style="shape=partialRectangle;connectable=0;fillColor=none;top=0;left=0;bottom=0;right=0;editable=1;overflow=hidden;" vertex="1" parent="44">
                    <mxGeometry width="63.93103448275866" height="30" as="geometry">
                        <mxRectangle width="63.93103448275866" height="30" as="alternateBounds"/>
                    </mxGeometry>
                </mxCell>
                <mxCell id="45" value="enum" style="shape=partialRectangle;connectable=0;fillColor=none;top=0;left=0;bottom=0;right=0;editable=1;overflow=hidden;" vertex="1" parent="44">
                    <mxGeometry x="63.93103448275866" width="63.93103448275866" height="30" as="geometry">
                        <mxRectangle width="63.93103448275866" height="30" as="alternateBounds"/>
                    </mxGeometry>
                </mxCell>
                <mxCell id="46" value="status = &quot;CREATED&quot;" style="shape=partialRectangle;connectable=0;fillColor=none;top=0;left=0;bottom=0;right=0;align=left;spacingLeft=6;overflow=hidden;" vertex="1" parent="44">
                    <mxGeometry x="127.86206896551732" width="140.54702194357344" height="30" as="geometry">
                        <mxRectangle width="140.54702194357344" height="30" as="alternateBounds"/>
                    </mxGeometry>
                </mxCell>
                <mxCell id="75" value="NO / NO" style="shape=partialRectangle;connectable=0;fillColor=none;top=0;left=0;bottom=0;right=0;align=left;spacingLeft=6;overflow=hidden;" vertex="1" parent="44">
                    <mxGeometry x="268.40909090909076" width="142.9387351778659" height="30" as="geometry">
                        <mxRectangle width="142.9387351778659" height="30" as="alternateBounds"/>
                    </mxGeometry>
                </mxCell>
                <mxCell id="82" value="" style="shape=partialRectangle;connectable=0;fillColor=none;top=0;left=0;bottom=0;right=0;align=left;spacingLeft=6;overflow=hidden;" vertex="1" parent="44">
                    <mxGeometry x="411.3478260869567" width="124.46169772256718" height="30" as="geometry">
                        <mxRectangle width="124.46169772256718" height="30" as="alternateBounds"/>
                    </mxGeometry>
                </mxCell>
                <mxCell id="47" style="shape=tableRow;horizontal=0;startSize=0;swimlaneHead=0;swimlaneBody=0;fillColor=none;collapsible=0;dropTarget=0;points=[[0,0.5],[1,0.5]];portConstraint=eastwest;top=0;left=0;right=0;bottom=0;" vertex="1" parent="13">
                    <mxGeometry y="245" width="535.8095238095239" height="32" as="geometry"/>
                </mxCell>
                <mxCell id="69" style="shape=partialRectangle;connectable=0;fillColor=none;top=0;left=0;bottom=0;right=0;editable=1;overflow=hidden;" vertex="1" parent="47">
                    <mxGeometry width="63.93103448275866" height="32" as="geometry">
                        <mxRectangle width="63.93103448275866" height="32" as="alternateBounds"/>
                    </mxGeometry>
                </mxCell>
                <mxCell id="48" value="enum" style="shape=partialRectangle;connectable=0;fillColor=none;top=0;left=0;bottom=0;right=0;editable=1;overflow=hidden;" vertex="1" parent="47">
                    <mxGeometry x="63.93103448275866" width="63.93103448275866" height="32" as="geometry">
                        <mxRectangle width="63.93103448275866" height="32" as="alternateBounds"/>
                    </mxGeometry>
                </mxCell>
                <mxCell id="49" value="role = &quot;USER&quot;" style="shape=partialRectangle;connectable=0;fillColor=none;top=0;left=0;bottom=0;right=0;align=left;spacingLeft=6;overflow=hidden;" vertex="1" parent="47">
                    <mxGeometry x="127.86206896551732" width="140.54702194357344" height="32" as="geometry">
                        <mxRectangle width="140.54702194357344" height="32" as="alternateBounds"/>
                    </mxGeometry>
                </mxCell>
                <mxCell id="76" value="NO / NO" style="shape=partialRectangle;connectable=0;fillColor=none;top=0;left=0;bottom=0;right=0;align=left;spacingLeft=6;overflow=hidden;" vertex="1" parent="47">
                    <mxGeometry x="268.40909090909076" width="142.9387351778659" height="32" as="geometry">
                        <mxRectangle width="142.9387351778659" height="32" as="alternateBounds"/>
                    </mxGeometry>
                </mxCell>
                <mxCell id="83" value="" style="shape=partialRectangle;connectable=0;fillColor=none;top=0;left=0;bottom=0;right=0;align=left;spacingLeft=6;overflow=hidden;" vertex="1" parent="47">
                    <mxGeometry x="411.3478260869567" width="124.46169772256718" height="32" as="geometry">
                        <mxRectangle width="124.46169772256718" height="32" as="alternateBounds"/>
                    </mxGeometry>
                </mxCell>
                <mxCell id="147" value="Blacklisted_tokens" style="shape=table;startSize=34;container=1;collapsible=1;childLayout=tableLayout;fixedRows=1;rowLines=1;fontStyle=1;align=center;resizeLast=1;resizeLastRow=0;enumerate=1;fillColor=#f0a30a;fontColor=#000000;strokeColor=#BD7000;noLabel=0;autosize=1;treeFolding=1;treeMoving=1;" vertex="1" parent="1">
                    <mxGeometry x="668" y="541" width="535.8095238095239" height="219" as="geometry"/>
                </mxCell>
                <mxCell id="148" value="" style="shape=tableRow;horizontal=0;startSize=0;swimlaneHead=0;swimlaneBody=0;fillColor=none;collapsible=0;dropTarget=0;points=[[0,0.5],[1,0.5]];portConstraint=eastwest;top=0;left=0;right=0;bottom=1;" vertex="1" parent="147">
                    <mxGeometry y="34" width="535.8095238095239" height="35" as="geometry"/>
                </mxCell>
                <mxCell id="149" value="Key" style="shape=partialRectangle;connectable=0;fillColor=none;top=0;left=0;bottom=0;right=0;fontStyle=1;overflow=hidden;" vertex="1" parent="148">
                    <mxGeometry width="63.93103448275866" height="35" as="geometry">
                        <mxRectangle width="63.93103448275866" height="35" as="alternateBounds"/>
                    </mxGeometry>
                </mxCell>
                <mxCell id="150" value="Type" style="shape=partialRectangle;connectable=0;fillColor=none;top=0;left=0;bottom=0;right=0;fontStyle=1;overflow=hidden;" vertex="1" parent="148">
                    <mxGeometry x="63.93103448275866" width="63.93103448275866" height="35" as="geometry">
                        <mxRectangle width="63.93103448275866" height="35" as="alternateBounds"/>
                    </mxGeometry>
                </mxCell>
                <mxCell id="151" value="Column" style="shape=partialRectangle;connectable=0;fillColor=none;top=0;left=0;bottom=0;right=0;align=left;spacingLeft=6;fontStyle=5;overflow=hidden;" vertex="1" parent="148">
                    <mxGeometry x="127.86206896551732" width="140.54702194357344" height="35" as="geometry">
                        <mxRectangle width="140.54702194357344" height="35" as="alternateBounds"/>
                    </mxGeometry>
                </mxCell>
                <mxCell id="152" value="NULLABLE / UNIQUE" style="shape=partialRectangle;connectable=0;fillColor=none;top=0;left=0;bottom=0;right=0;align=left;spacingLeft=6;fontStyle=5;overflow=hidden;" vertex="1" parent="148">
                    <mxGeometry x="268.40909090909076" width="142.9387351778659" height="35" as="geometry">
                        <mxRectangle width="142.9387351778659" height="35" as="alternateBounds"/>
                    </mxGeometry>
                </mxCell>
                <mxCell id="153" value="DESCRIPTION" style="shape=partialRectangle;connectable=0;fillColor=none;top=0;left=0;bottom=0;right=0;align=left;spacingLeft=6;fontStyle=5;overflow=hidden;" vertex="1" parent="148">
                    <mxGeometry x="411.3478260869567" width="124.46169772256718" height="35" as="geometry">
                        <mxRectangle width="124.46169772256718" height="35" as="alternateBounds"/>
                    </mxGeometry>
                </mxCell>
                <mxCell id="154" style="shape=tableRow;horizontal=0;startSize=0;swimlaneHead=0;swimlaneBody=0;fillColor=none;collapsible=0;dropTarget=0;points=[[0,0.5],[1,0.5]];portConstraint=eastwest;top=0;left=0;right=0;bottom=0;" vertex="1" parent="147">
                    <mxGeometry y="69" width="535.8095238095239" height="30" as="geometry"/>
                </mxCell>
                <mxCell id="155" value="PK" style="shape=partialRectangle;connectable=0;fillColor=none;top=0;left=0;bottom=0;right=0;editable=1;overflow=hidden;" vertex="1" parent="154">
                    <mxGeometry width="63.93103448275866" height="30" as="geometry">
                        <mxRectangle width="63.93103448275866" height="30" as="alternateBounds"/>
                    </mxGeometry>
                </mxCell>
                <mxCell id="156" value="UUID" style="shape=partialRectangle;connectable=0;fillColor=none;top=0;left=0;bottom=0;right=0;editable=1;overflow=hidden;" vertex="1" parent="154">
                    <mxGeometry x="63.93103448275866" width="63.93103448275866" height="30" as="geometry">
                        <mxRectangle width="63.93103448275866" height="30" as="alternateBounds"/>
                    </mxGeometry>
                </mxCell>
                <mxCell id="157" value="id" style="shape=partialRectangle;connectable=0;fillColor=none;top=0;left=0;bottom=0;right=0;align=left;spacingLeft=6;overflow=hidden;labelBackgroundColor=none;" vertex="1" parent="154">
                    <mxGeometry x="127.86206896551732" width="140.54702194357344" height="30" as="geometry">
                        <mxRectangle width="140.54702194357344" height="30" as="alternateBounds"/>
                    </mxGeometry>
                </mxCell>
                <mxCell id="158" value="NO / YES" style="shape=partialRectangle;connectable=0;fillColor=none;top=0;left=0;bottom=0;right=0;align=left;spacingLeft=6;overflow=hidden;labelBackgroundColor=none;" vertex="1" parent="154">
                    <mxGeometry x="268.40909090909076" width="142.9387351778659" height="30" as="geometry">
                        <mxRectangle width="142.9387351778659" height="30" as="alternateBounds"/>
                    </mxGeometry>
                </mxCell>
                <mxCell id="159" value="" style="shape=partialRectangle;connectable=0;fillColor=none;top=0;left=0;bottom=0;right=0;align=left;spacingLeft=6;overflow=hidden;labelBackgroundColor=none;" vertex="1" parent="154">
                    <mxGeometry x="411.3478260869567" width="124.46169772256718" height="30" as="geometry">
                        <mxRectangle width="124.46169772256718" height="30" as="alternateBounds"/>
                    </mxGeometry>
                </mxCell>
                <mxCell id="160" value="" style="shape=tableRow;horizontal=0;startSize=0;swimlaneHead=0;swimlaneBody=0;fillColor=none;collapsible=0;dropTarget=0;points=[[0,0.5],[1,0.5]];portConstraint=eastwest;top=0;left=0;right=0;bottom=0;" vertex="1" parent="147">
                    <mxGeometry y="99" width="535.8095238095239" height="30" as="geometry"/>
                </mxCell>
                <mxCell id="161" value="" style="shape=partialRectangle;connectable=0;fillColor=none;top=0;left=0;bottom=0;right=0;editable=1;overflow=hidden;" vertex="1" parent="160">
                    <mxGeometry width="63.93103448275866" height="30" as="geometry">
                        <mxRectangle width="63.93103448275866" height="30" as="alternateBounds"/>
                    </mxGeometry>
                </mxCell>
                <mxCell id="162" value="String" style="shape=partialRectangle;connectable=0;fillColor=none;top=0;left=0;bottom=0;right=0;editable=1;overflow=hidden;" vertex="1" parent="160">
                    <mxGeometry x="63.93103448275866" width="63.93103448275866" height="30" as="geometry">
                        <mxRectangle width="63.93103448275866" height="30" as="alternateBounds"/>
                    </mxGeometry>
                </mxCell>
                <mxCell id="163" value="jti" style="shape=partialRectangle;connectable=0;fillColor=none;top=0;left=0;bottom=0;right=0;align=left;spacingLeft=6;overflow=hidden;labelBackgroundColor=none;" vertex="1" parent="160">
                    <mxGeometry x="127.86206896551732" width="140.54702194357344" height="30" as="geometry">
                        <mxRectangle width="140.54702194357344" height="30" as="alternateBounds"/>
                    </mxGeometry>
                </mxCell>
                <mxCell id="164" value="NO / YES" style="shape=partialRectangle;connectable=0;fillColor=none;top=0;left=0;bottom=0;right=0;align=left;spacingLeft=6;overflow=hidden;labelBackgroundColor=none;" vertex="1" parent="160">
                    <mxGeometry x="268.40909090909076" width="142.9387351778659" height="30" as="geometry">
                        <mxRectangle width="142.9387351778659" height="30" as="alternateBounds"/>
                    </mxGeometry>
                </mxCell>
                <mxCell id="165" value="json token id" style="shape=partialRectangle;connectable=0;fillColor=none;top=0;left=0;bottom=0;right=0;align=left;spacingLeft=6;overflow=hidden;labelBackgroundColor=none;" vertex="1" parent="160">
                    <mxGeometry x="411.3478260869567" width="124.46169772256718" height="30" as="geometry">
                        <mxRectangle width="124.46169772256718" height="30" as="alternateBounds"/>
                    </mxGeometry>
                </mxCell>
                <mxCell id="166" value="" style="shape=tableRow;horizontal=0;startSize=0;swimlaneHead=0;swimlaneBody=0;fillColor=none;collapsible=0;dropTarget=0;points=[[0,0.5],[1,0.5]];portConstraint=eastwest;top=0;left=0;right=0;bottom=0;" vertex="1" parent="147">
                    <mxGeometry y="129" width="535.8095238095239" height="30" as="geometry"/>
                </mxCell>
                <mxCell id="167" style="shape=partialRectangle;connectable=0;fillColor=none;top=0;left=0;bottom=0;right=0;editable=1;overflow=hidden;" vertex="1" parent="166">
                    <mxGeometry width="63.93103448275866" height="30" as="geometry">
                        <mxRectangle width="63.93103448275866" height="30" as="alternateBounds"/>
                    </mxGeometry>
                </mxCell>
                <mxCell id="168" value="String" style="shape=partialRectangle;connectable=0;fillColor=none;top=0;left=0;bottom=0;right=0;editable=1;overflow=hidden;" vertex="1" parent="166">
                    <mxGeometry x="63.93103448275866" width="63.93103448275866" height="30" as="geometry">
                        <mxRectangle width="63.93103448275866" height="30" as="alternateBounds"/>
                    </mxGeometry>
                </mxCell>
                <mxCell id="169" value="token_type" style="shape=partialRectangle;connectable=0;fillColor=none;top=0;left=0;bottom=0;right=0;align=left;spacingLeft=6;overflow=hidden;" vertex="1" parent="166">
                    <mxGeometry x="127.86206896551732" width="140.54702194357344" height="30" as="geometry">
                        <mxRectangle width="140.54702194357344" height="30" as="alternateBounds"/>
                    </mxGeometry>
                </mxCell>
                <mxCell id="170" value="NO / NO" style="shape=partialRectangle;connectable=0;fillColor=none;top=0;left=0;bottom=0;right=0;align=left;spacingLeft=6;overflow=hidden;" vertex="1" parent="166">
                    <mxGeometry x="268.40909090909076" width="142.9387351778659" height="30" as="geometry">
                        <mxRectangle width="142.9387351778659" height="30" as="alternateBounds"/>
                    </mxGeometry>
                </mxCell>
                <mxCell id="171" value="access | refresh" style="shape=partialRectangle;connectable=0;fillColor=none;top=0;left=0;bottom=0;right=0;align=left;spacingLeft=6;overflow=hidden;" vertex="1" parent="166">
                    <mxGeometry x="411.3478260869567" width="124.46169772256718" height="30" as="geometry">
                        <mxRectangle width="124.46169772256718" height="30" as="alternateBounds"/>
                    </mxGeometry>
                </mxCell>
                <mxCell id="172" value="" style="shape=tableRow;horizontal=0;startSize=0;swimlaneHead=0;swimlaneBody=0;fillColor=none;collapsible=0;dropTarget=0;points=[[0,0.5],[1,0.5]];portConstraint=eastwest;top=0;left=0;right=0;bottom=0;" vertex="1" parent="147">
                    <mxGeometry y="159" width="535.8095238095239" height="30" as="geometry"/>
                </mxCell>
                <mxCell id="173" value="FK" style="shape=partialRectangle;connectable=0;fillColor=none;top=0;left=0;bottom=0;right=0;editable=1;overflow=hidden;" vertex="1" parent="172">
                    <mxGeometry width="63.93103448275866" height="30" as="geometry">
                        <mxRectangle width="63.93103448275866" height="30" as="alternateBounds"/>
                    </mxGeometry>
                </mxCell>
                <mxCell id="174" value="String" style="shape=partialRectangle;connectable=0;fillColor=none;top=0;left=0;bottom=0;right=0;editable=1;overflow=hidden;" vertex="1" parent="172">
                    <mxGeometry x="63.93103448275866" width="63.93103448275866" height="30" as="geometry">
                        <mxRectangle width="63.93103448275866" height="30" as="alternateBounds"/>
                    </mxGeometry>
                </mxCell>
                <mxCell id="175" value="user_id" style="shape=partialRectangle;connectable=0;fillColor=none;top=0;left=0;bottom=0;right=0;align=left;spacingLeft=6;overflow=hidden;" vertex="1" parent="172">
                    <mxGeometry x="127.86206896551732" width="140.54702194357344" height="30" as="geometry">
                        <mxRectangle width="140.54702194357344" height="30" as="alternateBounds"/>
                    </mxGeometry>
                </mxCell>
                <mxCell id="176" value="NO / YES" style="shape=partialRectangle;connectable=0;fillColor=none;top=0;left=0;bottom=0;right=0;align=left;spacingLeft=6;overflow=hidden;" vertex="1" parent="172">
                    <mxGeometry x="268.40909090909076" width="142.9387351778659" height="30" as="geometry">
                        <mxRectangle width="142.9387351778659" height="30" as="alternateBounds"/>
                    </mxGeometry>
                </mxCell>
                <mxCell id="177" value="" style="shape=partialRectangle;connectable=0;fillColor=none;top=0;left=0;bottom=0;right=0;align=left;spacingLeft=6;overflow=hidden;" vertex="1" parent="172">
                    <mxGeometry x="411.3478260869567" width="124.46169772256718" height="30" as="geometry">
                        <mxRectangle width="124.46169772256718" height="30" as="alternateBounds"/>
                    </mxGeometry>
                </mxCell>
                <mxCell id="178" style="shape=tableRow;horizontal=0;startSize=0;swimlaneHead=0;swimlaneBody=0;fillColor=none;collapsible=0;dropTarget=0;points=[[0,0.5],[1,0.5]];portConstraint=eastwest;top=0;left=0;right=0;bottom=0;" vertex="1" parent="147">
                    <mxGeometry y="189" width="535.8095238095239" height="30" as="geometry"/>
                </mxCell>
                <mxCell id="179" style="shape=partialRectangle;connectable=0;fillColor=none;top=0;left=0;bottom=0;right=0;editable=1;overflow=hidden;" vertex="1" parent="178">
                    <mxGeometry width="63.93103448275866" height="30" as="geometry">
                        <mxRectangle width="63.93103448275866" height="30" as="alternateBounds"/>
                    </mxGeometry>
                </mxCell>
                <mxCell id="180" value="Datetime" style="shape=partialRectangle;connectable=0;fillColor=none;top=0;left=0;bottom=0;right=0;editable=1;overflow=hidden;" vertex="1" parent="178">
                    <mxGeometry x="63.93103448275866" width="63.93103448275866" height="30" as="geometry">
                        <mxRectangle width="63.93103448275866" height="30" as="alternateBounds"/>
                    </mxGeometry>
                </mxCell>
                <mxCell id="181" value="expires_at" style="shape=partialRectangle;connectable=0;fillColor=none;top=0;left=0;bottom=0;right=0;align=left;spacingLeft=6;overflow=hidden;" vertex="1" parent="178">
                    <mxGeometry x="127.86206896551732" width="140.54702194357344" height="30" as="geometry">
                        <mxRectangle width="140.54702194357344" height="30" as="alternateBounds"/>
                    </mxGeometry>
                </mxCell>
                <mxCell id="182" value="YES / NO" style="shape=partialRectangle;connectable=0;fillColor=none;top=0;left=0;bottom=0;right=0;align=left;spacingLeft=6;overflow=hidden;" vertex="1" parent="178">
                    <mxGeometry x="268.40909090909076" width="142.9387351778659" height="30" as="geometry">
                        <mxRectangle width="142.9387351778659" height="30" as="alternateBounds"/>
                    </mxGeometry>
                </mxCell>
                <mxCell id="183" value="" style="shape=partialRectangle;connectable=0;fillColor=none;top=0;left=0;bottom=0;right=0;align=left;spacingLeft=6;overflow=hidden;" vertex="1" parent="178">
                    <mxGeometry x="411.3478260869567" width="124.46169772256718" height="30" as="geometry">
                        <mxRectangle width="124.46169772256718" height="30" as="alternateBounds"/>
                    </mxGeometry>
                </mxCell>
                <mxCell id="196" style="edgeStyle=orthogonalEdgeStyle;html=1;exitX=1;exitY=0.5;exitDx=0;exitDy=0;entryX=0;entryY=0.5;entryDx=0;entryDy=0;" edge="1" parent="1" source="84" target="172">
                    <mxGeometry relative="1" as="geometry"/>
                </mxCell>
                <mxCell id="197" value="user_device" style="shape=table;startSize=34;container=1;collapsible=1;childLayout=tableLayout;fixedRows=1;rowLines=1;fontStyle=1;align=center;resizeLast=1;resizeLastRow=0;enumerate=1;fillColor=#76608a;fontColor=#ffffff;strokeColor=#432D57;noLabel=0;autosize=1;treeFolding=1;treeMoving=1;" vertex="1" parent="1">
                    <mxGeometry x="-559" y="506" width="535.8095238095239" height="129" as="geometry"/>
                </mxCell>
                <mxCell id="198" value="" style="shape=tableRow;horizontal=0;startSize=0;swimlaneHead=0;swimlaneBody=0;fillColor=none;collapsible=0;dropTarget=0;points=[[0,0.5],[1,0.5]];portConstraint=eastwest;top=0;left=0;right=0;bottom=1;" vertex="1" parent="197">
                    <mxGeometry y="34" width="535.8095238095239" height="35" as="geometry"/>
                </mxCell>
                <mxCell id="199" value="Key" style="shape=partialRectangle;connectable=0;fillColor=none;top=0;left=0;bottom=0;right=0;fontStyle=1;overflow=hidden;" vertex="1" parent="198">
                    <mxGeometry width="63.93103448275866" height="35" as="geometry">
                        <mxRectangle width="63.93103448275866" height="35" as="alternateBounds"/>
                    </mxGeometry>
                </mxCell>
                <mxCell id="200" value="Type" style="shape=partialRectangle;connectable=0;fillColor=none;top=0;left=0;bottom=0;right=0;fontStyle=1;overflow=hidden;" vertex="1" parent="198">
                    <mxGeometry x="63.93103448275866" width="63.93103448275866" height="35" as="geometry">
                        <mxRectangle width="63.93103448275866" height="35" as="alternateBounds"/>
                    </mxGeometry>
                </mxCell>
                <mxCell id="201" value="Column" style="shape=partialRectangle;connectable=0;fillColor=none;top=0;left=0;bottom=0;right=0;align=left;spacingLeft=6;fontStyle=5;overflow=hidden;" vertex="1" parent="198">
                    <mxGeometry x="127.86206896551732" width="140.54702194357344" height="35" as="geometry">
                        <mxRectangle width="140.54702194357344" height="35" as="alternateBounds"/>
                    </mxGeometry>
                </mxCell>
                <mxCell id="202" value="NULLABLE / UNIQUE" style="shape=partialRectangle;connectable=0;fillColor=none;top=0;left=0;bottom=0;right=0;align=left;spacingLeft=6;fontStyle=5;overflow=hidden;" vertex="1" parent="198">
                    <mxGeometry x="268.40909090909076" width="142.9387351778659" height="35" as="geometry">
                        <mxRectangle width="142.9387351778659" height="35" as="alternateBounds"/>
                    </mxGeometry>
                </mxCell>
                <mxCell id="203" value="DESCRIPTION" style="shape=partialRectangle;connectable=0;fillColor=none;top=0;left=0;bottom=0;right=0;align=left;spacingLeft=6;fontStyle=5;overflow=hidden;" vertex="1" parent="198">
                    <mxGeometry x="411.3478260869567" width="124.46169772256718" height="35" as="geometry">
                        <mxRectangle width="124.46169772256718" height="35" as="alternateBounds"/>
                    </mxGeometry>
                </mxCell>
                <mxCell id="204" style="shape=tableRow;horizontal=0;startSize=0;swimlaneHead=0;swimlaneBody=0;fillColor=none;collapsible=0;dropTarget=0;points=[[0,0.5],[1,0.5]];portConstraint=eastwest;top=0;left=0;right=0;bottom=0;" vertex="1" parent="197">
                    <mxGeometry y="69" width="535.8095238095239" height="30" as="geometry"/>
                </mxCell>
                <mxCell id="205" value="FK" style="shape=partialRectangle;connectable=0;fillColor=none;top=0;left=0;bottom=0;right=0;editable=1;overflow=hidden;" vertex="1" parent="204">
                    <mxGeometry width="63.93103448275866" height="30" as="geometry">
                        <mxRectangle width="63.93103448275866" height="30" as="alternateBounds"/>
                    </mxGeometry>
                </mxCell>
                <mxCell id="206" value="UUID" style="shape=partialRectangle;connectable=0;fillColor=none;top=0;left=0;bottom=0;right=0;editable=1;overflow=hidden;" vertex="1" parent="204">
                    <mxGeometry x="63.93103448275866" width="63.93103448275866" height="30" as="geometry">
                        <mxRectangle width="63.93103448275866" height="30" as="alternateBounds"/>
                    </mxGeometry>
                </mxCell>
                <mxCell id="207" value="device_id" style="shape=partialRectangle;connectable=0;fillColor=none;top=0;left=0;bottom=0;right=0;align=left;spacingLeft=6;overflow=hidden;labelBackgroundColor=none;" vertex="1" parent="204">
                    <mxGeometry x="127.86206896551732" width="140.54702194357344" height="30" as="geometry">
                        <mxRectangle width="140.54702194357344" height="30" as="alternateBounds"/>
                    </mxGeometry>
                </mxCell>
                <mxCell id="208" value="NO / YES" style="shape=partialRectangle;connectable=0;fillColor=none;top=0;left=0;bottom=0;right=0;align=left;spacingLeft=6;overflow=hidden;labelBackgroundColor=none;" vertex="1" parent="204">
                    <mxGeometry x="268.40909090909076" width="142.9387351778659" height="30" as="geometry">
                        <mxRectangle width="142.9387351778659" height="30" as="alternateBounds"/>
                    </mxGeometry>
                </mxCell>
                <mxCell id="209" value="" style="shape=partialRectangle;connectable=0;fillColor=none;top=0;left=0;bottom=0;right=0;align=left;spacingLeft=6;overflow=hidden;labelBackgroundColor=none;" vertex="1" parent="204">
                    <mxGeometry x="411.3478260869567" width="124.46169772256718" height="30" as="geometry">
                        <mxRectangle width="124.46169772256718" height="30" as="alternateBounds"/>
                    </mxGeometry>
                </mxCell>
                <mxCell id="210" value="" style="shape=tableRow;horizontal=0;startSize=0;swimlaneHead=0;swimlaneBody=0;fillColor=none;collapsible=0;dropTarget=0;points=[[0,0.5],[1,0.5]];portConstraint=eastwest;top=0;left=0;right=0;bottom=0;" vertex="1" parent="197">
                    <mxGeometry y="99" width="535.8095238095239" height="30" as="geometry"/>
                </mxCell>
                <mxCell id="211" value="FK" style="shape=partialRectangle;connectable=0;fillColor=none;top=0;left=0;bottom=0;right=0;editable=1;overflow=hidden;" vertex="1" parent="210">
                    <mxGeometry width="63.93103448275866" height="30" as="geometry">
                        <mxRectangle width="63.93103448275866" height="30" as="alternateBounds"/>
                    </mxGeometry>
                </mxCell>
                <mxCell id="212" value="String" style="shape=partialRectangle;connectable=0;fillColor=none;top=0;left=0;bottom=0;right=0;editable=1;overflow=hidden;" vertex="1" parent="210">
                    <mxGeometry x="63.93103448275866" width="63.93103448275866" height="30" as="geometry">
                        <mxRectangle width="63.93103448275866" height="30" as="alternateBounds"/>
                    </mxGeometry>
                </mxCell>
                <mxCell id="213" value="user_id" style="shape=partialRectangle;connectable=0;fillColor=none;top=0;left=0;bottom=0;right=0;align=left;spacingLeft=6;overflow=hidden;labelBackgroundColor=none;" vertex="1" parent="210">
                    <mxGeometry x="127.86206896551732" width="140.54702194357344" height="30" as="geometry">
                        <mxRectangle width="140.54702194357344" height="30" as="alternateBounds"/>
                    </mxGeometry>
                </mxCell>
                <mxCell id="214" value="YES / YES" style="shape=partialRectangle;connectable=0;fillColor=none;top=0;left=0;bottom=0;right=0;align=left;spacingLeft=6;overflow=hidden;labelBackgroundColor=none;" vertex="1" parent="210">
                    <mxGeometry x="268.40909090909076" width="142.9387351778659" height="30" as="geometry">
                        <mxRectangle width="142.9387351778659" height="30" as="alternateBounds"/>
                    </mxGeometry>
                </mxCell>
                <mxCell id="215" value="" style="shape=partialRectangle;connectable=0;fillColor=none;top=0;left=0;bottom=0;right=0;align=left;spacingLeft=6;overflow=hidden;labelBackgroundColor=none;" vertex="1" parent="210">
                    <mxGeometry x="411.3478260869567" width="124.46169772256718" height="30" as="geometry">
                        <mxRectangle width="124.46169772256718" height="30" as="alternateBounds"/>
                    </mxGeometry>
                </mxCell>
                <mxCell id="246" style="edgeStyle=orthogonalEdgeStyle;html=1;exitX=0;exitY=0.5;exitDx=0;exitDy=0;entryX=1;entryY=0.5;entryDx=0;entryDy=0;" edge="1" parent="1" source="84" target="210">
                    <mxGeometry relative="1" as="geometry"/>
                </mxCell>
                <mxCell id="247" value="Devices" style="shape=table;startSize=34;container=1;collapsible=1;childLayout=tableLayout;fixedRows=1;rowLines=1;fontStyle=1;align=center;resizeLast=1;resizeLastRow=0;enumerate=1;fillColor=#60a917;fontColor=#ffffff;strokeColor=#2D7600;noLabel=0;autosize=1;treeFolding=1;treeMoving=1;" vertex="1" parent="1">
                    <mxGeometry x="-1167" y="351" width="535.8095238095239" height="189" as="geometry"/>
                </mxCell>
                <mxCell id="248" value="" style="shape=tableRow;horizontal=0;startSize=0;swimlaneHead=0;swimlaneBody=0;fillColor=none;collapsible=0;dropTarget=0;points=[[0,0.5],[1,0.5]];portConstraint=eastwest;top=0;left=0;right=0;bottom=1;" vertex="1" parent="247">
                    <mxGeometry y="34" width="535.8095238095239" height="35" as="geometry"/>
                </mxCell>
                <mxCell id="249" value="Key" style="shape=partialRectangle;connectable=0;fillColor=none;top=0;left=0;bottom=0;right=0;fontStyle=1;overflow=hidden;" vertex="1" parent="248">
                    <mxGeometry width="63.93103448275866" height="35" as="geometry">
                        <mxRectangle width="63.93103448275866" height="35" as="alternateBounds"/>
                    </mxGeometry>
                </mxCell>
                <mxCell id="250" value="Type" style="shape=partialRectangle;connectable=0;fillColor=none;top=0;left=0;bottom=0;right=0;fontStyle=1;overflow=hidden;" vertex="1" parent="248">
                    <mxGeometry x="63.93103448275866" width="63.93103448275866" height="35" as="geometry">
                        <mxRectangle width="63.93103448275866" height="35" as="alternateBounds"/>
                    </mxGeometry>
                </mxCell>
                <mxCell id="251" value="Column" style="shape=partialRectangle;connectable=0;fillColor=none;top=0;left=0;bottom=0;right=0;align=left;spacingLeft=6;fontStyle=5;overflow=hidden;" vertex="1" parent="248">
                    <mxGeometry x="127.86206896551732" width="140.54702194357344" height="35" as="geometry">
                        <mxRectangle width="140.54702194357344" height="35" as="alternateBounds"/>
                    </mxGeometry>
                </mxCell>
                <mxCell id="252" value="NULLABLE / UNIQUE" style="shape=partialRectangle;connectable=0;fillColor=none;top=0;left=0;bottom=0;right=0;align=left;spacingLeft=6;fontStyle=5;overflow=hidden;" vertex="1" parent="248">
                    <mxGeometry x="268.40909090909076" width="142.9387351778659" height="35" as="geometry">
                        <mxRectangle width="142.9387351778659" height="35" as="alternateBounds"/>
                    </mxGeometry>
                </mxCell>
                <mxCell id="253" value="DESCRIPTION" style="shape=partialRectangle;connectable=0;fillColor=none;top=0;left=0;bottom=0;right=0;align=left;spacingLeft=6;fontStyle=5;overflow=hidden;" vertex="1" parent="248">
                    <mxGeometry x="411.3478260869567" width="124.46169772256718" height="35" as="geometry">
                        <mxRectangle width="124.46169772256718" height="35" as="alternateBounds"/>
                    </mxGeometry>
                </mxCell>
                <mxCell id="254" style="shape=tableRow;horizontal=0;startSize=0;swimlaneHead=0;swimlaneBody=0;fillColor=none;collapsible=0;dropTarget=0;points=[[0,0.5],[1,0.5]];portConstraint=eastwest;top=0;left=0;right=0;bottom=0;" vertex="1" parent="247">
                    <mxGeometry y="69" width="535.8095238095239" height="30" as="geometry"/>
                </mxCell>
                <mxCell id="255" value="FK" style="shape=partialRectangle;connectable=0;fillColor=none;top=0;left=0;bottom=0;right=0;editable=1;overflow=hidden;" vertex="1" parent="254">
                    <mxGeometry width="63.93103448275866" height="30" as="geometry">
                        <mxRectangle width="63.93103448275866" height="30" as="alternateBounds"/>
                    </mxGeometry>
                </mxCell>
                <mxCell id="256" value="UUID" style="shape=partialRectangle;connectable=0;fillColor=none;top=0;left=0;bottom=0;right=0;editable=1;overflow=hidden;" vertex="1" parent="254">
                    <mxGeometry x="63.93103448275866" width="63.93103448275866" height="30" as="geometry">
                        <mxRectangle width="63.93103448275866" height="30" as="alternateBounds"/>
                    </mxGeometry>
                </mxCell>
                <mxCell id="257" value="id" style="shape=partialRectangle;connectable=0;fillColor=none;top=0;left=0;bottom=0;right=0;align=left;spacingLeft=6;overflow=hidden;labelBackgroundColor=none;" vertex="1" parent="254">
                    <mxGeometry x="127.86206896551732" width="140.54702194357344" height="30" as="geometry">
                        <mxRectangle width="140.54702194357344" height="30" as="alternateBounds"/>
                    </mxGeometry>
                </mxCell>
                <mxCell id="258" value="NO / YES" style="shape=partialRectangle;connectable=0;fillColor=none;top=0;left=0;bottom=0;right=0;align=left;spacingLeft=6;overflow=hidden;labelBackgroundColor=none;" vertex="1" parent="254">
                    <mxGeometry x="268.40909090909076" width="142.9387351778659" height="30" as="geometry">
                        <mxRectangle width="142.9387351778659" height="30" as="alternateBounds"/>
                    </mxGeometry>
                </mxCell>
                <mxCell id="259" value="" style="shape=partialRectangle;connectable=0;fillColor=none;top=0;left=0;bottom=0;right=0;align=left;spacingLeft=6;overflow=hidden;labelBackgroundColor=none;" vertex="1" parent="254">
                    <mxGeometry x="411.3478260869567" width="124.46169772256718" height="30" as="geometry">
                        <mxRectangle width="124.46169772256718" height="30" as="alternateBounds"/>
                    </mxGeometry>
                </mxCell>
                <mxCell id="260" value="" style="shape=tableRow;horizontal=0;startSize=0;swimlaneHead=0;swimlaneBody=0;fillColor=none;collapsible=0;dropTarget=0;points=[[0,0.5],[1,0.5]];portConstraint=eastwest;top=0;left=0;right=0;bottom=0;" vertex="1" parent="247">
                    <mxGeometry y="99" width="535.8095238095239" height="30" as="geometry"/>
                </mxCell>
                <mxCell id="261" value="" style="shape=partialRectangle;connectable=0;fillColor=none;top=0;left=0;bottom=0;right=0;editable=1;overflow=hidden;" vertex="1" parent="260">
                    <mxGeometry width="63.93103448275866" height="30" as="geometry">
                        <mxRectangle width="63.93103448275866" height="30" as="alternateBounds"/>
                    </mxGeometry>
                </mxCell>
                <mxCell id="262" value="String" style="shape=partialRectangle;connectable=0;fillColor=none;top=0;left=0;bottom=0;right=0;editable=1;overflow=hidden;" vertex="1" parent="260">
                    <mxGeometry x="63.93103448275866" width="63.93103448275866" height="30" as="geometry">
                        <mxRectangle width="63.93103448275866" height="30" as="alternateBounds"/>
                    </mxGeometry>
                </mxCell>
                <mxCell id="263" value="device_name" style="shape=partialRectangle;connectable=0;fillColor=none;top=0;left=0;bottom=0;right=0;align=left;spacingLeft=6;overflow=hidden;labelBackgroundColor=none;" vertex="1" parent="260">
                    <mxGeometry x="127.86206896551732" width="140.54702194357344" height="30" as="geometry">
                        <mxRectangle width="140.54702194357344" height="30" as="alternateBounds"/>
                    </mxGeometry>
                </mxCell>
                <mxCell id="264" value="YES / YES" style="shape=partialRectangle;connectable=0;fillColor=none;top=0;left=0;bottom=0;right=0;align=left;spacingLeft=6;overflow=hidden;labelBackgroundColor=none;" vertex="1" parent="260">
                    <mxGeometry x="268.40909090909076" width="142.9387351778659" height="30" as="geometry">
                        <mxRectangle width="142.9387351778659" height="30" as="alternateBounds"/>
                    </mxGeometry>
                </mxCell>
                <mxCell id="265" value="" style="shape=partialRectangle;connectable=0;fillColor=none;top=0;left=0;bottom=0;right=0;align=left;spacingLeft=6;overflow=hidden;labelBackgroundColor=none;" vertex="1" parent="260">
                    <mxGeometry x="411.3478260869567" width="124.46169772256718" height="30" as="geometry">
                        <mxRectangle width="124.46169772256718" height="30" as="alternateBounds"/>
                    </mxGeometry>
                </mxCell>
                <mxCell id="266" style="shape=tableRow;horizontal=0;startSize=0;swimlaneHead=0;swimlaneBody=0;fillColor=none;collapsible=0;dropTarget=0;points=[[0,0.5],[1,0.5]];portConstraint=eastwest;top=0;left=0;right=0;bottom=0;" vertex="1" parent="247">
                    <mxGeometry y="129" width="535.8095238095239" height="30" as="geometry"/>
                </mxCell>
                <mxCell id="267" style="shape=partialRectangle;connectable=0;fillColor=none;top=0;left=0;bottom=0;right=0;editable=1;overflow=hidden;" vertex="1" parent="266">
                    <mxGeometry width="63.93103448275866" height="30" as="geometry">
                        <mxRectangle width="63.93103448275866" height="30" as="alternateBounds"/>
                    </mxGeometry>
                </mxCell>
                <mxCell id="268" value="String" style="shape=partialRectangle;connectable=0;fillColor=none;top=0;left=0;bottom=0;right=0;editable=1;overflow=hidden;" vertex="1" parent="266">
                    <mxGeometry x="63.93103448275866" width="63.93103448275866" height="30" as="geometry">
                        <mxRectangle width="63.93103448275866" height="30" as="alternateBounds"/>
                    </mxGeometry>
                </mxCell>
                <mxCell id="269" value="os_info" style="shape=partialRectangle;connectable=0;fillColor=none;top=0;left=0;bottom=0;right=0;align=left;spacingLeft=6;overflow=hidden;labelBackgroundColor=none;" vertex="1" parent="266">
                    <mxGeometry x="127.86206896551732" width="140.54702194357344" height="30" as="geometry">
                        <mxRectangle width="140.54702194357344" height="30" as="alternateBounds"/>
                    </mxGeometry>
                </mxCell>
                <mxCell id="270" value="YES / NO" style="shape=partialRectangle;connectable=0;fillColor=none;top=0;left=0;bottom=0;right=0;align=left;spacingLeft=6;overflow=hidden;labelBackgroundColor=none;" vertex="1" parent="266">
                    <mxGeometry x="268.40909090909076" width="142.9387351778659" height="30" as="geometry">
                        <mxRectangle width="142.9387351778659" height="30" as="alternateBounds"/>
                    </mxGeometry>
                </mxCell>
                <mxCell id="271" style="shape=partialRectangle;connectable=0;fillColor=none;top=0;left=0;bottom=0;right=0;align=left;spacingLeft=6;overflow=hidden;labelBackgroundColor=none;" vertex="1" parent="266">
                    <mxGeometry x="411.3478260869567" width="124.46169772256718" height="30" as="geometry">
                        <mxRectangle width="124.46169772256718" height="30" as="alternateBounds"/>
                    </mxGeometry>
                </mxCell>
                <mxCell id="272" style="shape=tableRow;horizontal=0;startSize=0;swimlaneHead=0;swimlaneBody=0;fillColor=none;collapsible=0;dropTarget=0;points=[[0,0.5],[1,0.5]];portConstraint=eastwest;top=0;left=0;right=0;bottom=0;" vertex="1" parent="247">
                    <mxGeometry y="159" width="535.8095238095239" height="30" as="geometry"/>
                </mxCell>
                <mxCell id="273" style="shape=partialRectangle;connectable=0;fillColor=none;top=0;left=0;bottom=0;right=0;editable=1;overflow=hidden;" vertex="1" parent="272">
                    <mxGeometry width="63.93103448275866" height="30" as="geometry">
                        <mxRectangle width="63.93103448275866" height="30" as="alternateBounds"/>
                    </mxGeometry>
                </mxCell>
                <mxCell id="274" value="String" style="shape=partialRectangle;connectable=0;fillColor=none;top=0;left=0;bottom=0;right=0;editable=1;overflow=hidden;" vertex="1" parent="272">
                    <mxGeometry x="63.93103448275866" width="63.93103448275866" height="30" as="geometry">
                        <mxRectangle width="63.93103448275866" height="30" as="alternateBounds"/>
                    </mxGeometry>
                </mxCell>
                <mxCell id="275" value="metadata" style="shape=partialRectangle;connectable=0;fillColor=none;top=0;left=0;bottom=0;right=0;align=left;spacingLeft=6;overflow=hidden;labelBackgroundColor=none;" vertex="1" parent="272">
                    <mxGeometry x="127.86206896551732" width="140.54702194357344" height="30" as="geometry">
                        <mxRectangle width="140.54702194357344" height="30" as="alternateBounds"/>
                    </mxGeometry>
                </mxCell>
                <mxCell id="276" value="YES / NO" style="shape=partialRectangle;connectable=0;fillColor=none;top=0;left=0;bottom=0;right=0;align=left;spacingLeft=6;overflow=hidden;labelBackgroundColor=none;" vertex="1" parent="272">
                    <mxGeometry x="268.40909090909076" width="142.9387351778659" height="30" as="geometry">
                        <mxRectangle width="142.9387351778659" height="30" as="alternateBounds"/>
                    </mxGeometry>
                </mxCell>
                <mxCell id="277" style="shape=partialRectangle;connectable=0;fillColor=none;top=0;left=0;bottom=0;right=0;align=left;spacingLeft=6;overflow=hidden;labelBackgroundColor=none;" vertex="1" parent="272">
                    <mxGeometry x="411.3478260869567" width="124.46169772256718" height="30" as="geometry">
                        <mxRectangle width="124.46169772256718" height="30" as="alternateBounds"/>
                    </mxGeometry>
                </mxCell>
                <mxCell id="278" style="edgeStyle=orthogonalEdgeStyle;html=1;exitX=0;exitY=0.5;exitDx=0;exitDy=0;entryX=1;entryY=0.5;entryDx=0;entryDy=0;" edge="1" parent="1" source="204" target="254">
                    <mxGeometry relative="1" as="geometry"/>
                </mxCell>
                <mxCell id="328" value="User_verification" style="shape=table;startSize=34;container=1;collapsible=1;childLayout=tableLayout;fixedRows=1;rowLines=1;fontStyle=1;align=center;resizeLast=1;resizeLastRow=0;enumerate=1;fillColor=#e3c800;fontColor=#000000;strokeColor=#B09500;noLabel=0;autosize=1;treeFolding=1;treeMoving=1;" vertex="1" parent="1">
                    <mxGeometry x="-792" y="-108" width="659.9285714285713" height="219" as="geometry"/>
                </mxCell>
                <mxCell id="329" value="" style="shape=tableRow;horizontal=0;startSize=0;swimlaneHead=0;swimlaneBody=0;fillColor=none;collapsible=0;dropTarget=0;points=[[0,0.5],[1,0.5]];portConstraint=eastwest;top=0;left=0;right=0;bottom=1;" vertex="1" parent="328">
                    <mxGeometry y="34" width="659.9285714285713" height="35" as="geometry"/>
                </mxCell>
                <mxCell id="330" value="Key" style="shape=partialRectangle;connectable=0;fillColor=none;top=0;left=0;bottom=0;right=0;fontStyle=1;overflow=hidden;" vertex="1" parent="329">
                    <mxGeometry width="63.93103448275866" height="35" as="geometry">
                        <mxRectangle width="63.93103448275866" height="35" as="alternateBounds"/>
                    </mxGeometry>
                </mxCell>
                <mxCell id="331" value="Type" style="shape=partialRectangle;connectable=0;fillColor=none;top=0;left=0;bottom=0;right=0;fontStyle=1;overflow=hidden;" vertex="1" parent="329">
                    <mxGeometry x="63.93103448275866" width="63.93103448275866" height="35" as="geometry">
                        <mxRectangle width="63.93103448275866" height="35" as="alternateBounds"/>
                    </mxGeometry>
                </mxCell>
                <mxCell id="332" value="Column" style="shape=partialRectangle;connectable=0;fillColor=none;top=0;left=0;bottom=0;right=0;align=left;spacingLeft=6;fontStyle=5;overflow=hidden;" vertex="1" parent="329">
                    <mxGeometry x="127.86206896551732" width="140.54702194357344" height="35" as="geometry">
                        <mxRectangle width="140.54702194357344" height="35" as="alternateBounds"/>
                    </mxGeometry>
                </mxCell>
                <mxCell id="333" value="NULLABLE / UNIQUE" style="shape=partialRectangle;connectable=0;fillColor=none;top=0;left=0;bottom=0;right=0;align=left;spacingLeft=6;fontStyle=5;overflow=hidden;" vertex="1" parent="329">
                    <mxGeometry x="268.40909090909076" width="142.9387351778659" height="35" as="geometry">
                        <mxRectangle width="142.9387351778659" height="35" as="alternateBounds"/>
                    </mxGeometry>
                </mxCell>
                <mxCell id="334" value="DESCRIPTION" style="shape=partialRectangle;connectable=0;fillColor=none;top=0;left=0;bottom=0;right=0;align=left;spacingLeft=6;fontStyle=5;overflow=hidden;" vertex="1" parent="329">
                    <mxGeometry x="411.3478260869567" width="248.58074534161466" height="35" as="geometry">
                        <mxRectangle width="248.58074534161466" height="35" as="alternateBounds"/>
                    </mxGeometry>
                </mxCell>
                <mxCell id="335" style="shape=tableRow;horizontal=0;startSize=0;swimlaneHead=0;swimlaneBody=0;fillColor=none;collapsible=0;dropTarget=0;points=[[0,0.5],[1,0.5]];portConstraint=eastwest;top=0;left=0;right=0;bottom=0;" vertex="1" parent="328">
                    <mxGeometry y="69" width="659.9285714285713" height="30" as="geometry"/>
                </mxCell>
                <mxCell id="336" value="PK" style="shape=partialRectangle;connectable=0;fillColor=none;top=0;left=0;bottom=0;right=0;editable=1;overflow=hidden;" vertex="1" parent="335">
                    <mxGeometry width="63.93103448275866" height="30" as="geometry">
                        <mxRectangle width="63.93103448275866" height="30" as="alternateBounds"/>
                    </mxGeometry>
                </mxCell>
                <mxCell id="337" value="UUID" style="shape=partialRectangle;connectable=0;fillColor=none;top=0;left=0;bottom=0;right=0;editable=1;overflow=hidden;" vertex="1" parent="335">
                    <mxGeometry x="63.93103448275866" width="63.93103448275866" height="30" as="geometry">
                        <mxRectangle width="63.93103448275866" height="30" as="alternateBounds"/>
                    </mxGeometry>
                </mxCell>
                <mxCell id="338" value="id" style="shape=partialRectangle;connectable=0;fillColor=none;top=0;left=0;bottom=0;right=0;align=left;spacingLeft=6;overflow=hidden;labelBackgroundColor=none;" vertex="1" parent="335">
                    <mxGeometry x="127.86206896551732" width="140.54702194357344" height="30" as="geometry">
                        <mxRectangle width="140.54702194357344" height="30" as="alternateBounds"/>
                    </mxGeometry>
                </mxCell>
                <mxCell id="339" value="NO / YES" style="shape=partialRectangle;connectable=0;fillColor=none;top=0;left=0;bottom=0;right=0;align=left;spacingLeft=6;overflow=hidden;labelBackgroundColor=none;" vertex="1" parent="335">
                    <mxGeometry x="268.40909090909076" width="142.9387351778659" height="30" as="geometry">
                        <mxRectangle width="142.9387351778659" height="30" as="alternateBounds"/>
                    </mxGeometry>
                </mxCell>
                <mxCell id="340" value="" style="shape=partialRectangle;connectable=0;fillColor=none;top=0;left=0;bottom=0;right=0;align=left;spacingLeft=6;overflow=hidden;labelBackgroundColor=none;" vertex="1" parent="335">
                    <mxGeometry x="411.3478260869567" width="248.58074534161466" height="30" as="geometry">
                        <mxRectangle width="248.58074534161466" height="30" as="alternateBounds"/>
                    </mxGeometry>
                </mxCell>
                <mxCell id="341" value="" style="shape=tableRow;horizontal=0;startSize=0;swimlaneHead=0;swimlaneBody=0;fillColor=none;collapsible=0;dropTarget=0;points=[[0,0.5],[1,0.5]];portConstraint=eastwest;top=0;left=0;right=0;bottom=0;" vertex="1" parent="328">
                    <mxGeometry y="99" width="659.9285714285713" height="30" as="geometry"/>
                </mxCell>
                <mxCell id="342" value="FK" style="shape=partialRectangle;connectable=0;fillColor=none;top=0;left=0;bottom=0;right=0;editable=1;overflow=hidden;" vertex="1" parent="341">
                    <mxGeometry width="63.93103448275866" height="30" as="geometry">
                        <mxRectangle width="63.93103448275866" height="30" as="alternateBounds"/>
                    </mxGeometry>
                </mxCell>
                <mxCell id="343" value="String" style="shape=partialRectangle;connectable=0;fillColor=none;top=0;left=0;bottom=0;right=0;editable=1;overflow=hidden;" vertex="1" parent="341">
                    <mxGeometry x="63.93103448275866" width="63.93103448275866" height="30" as="geometry">
                        <mxRectangle width="63.93103448275866" height="30" as="alternateBounds"/>
                    </mxGeometry>
                </mxCell>
                <mxCell id="344" value="user_id" style="shape=partialRectangle;connectable=0;fillColor=none;top=0;left=0;bottom=0;right=0;align=left;spacingLeft=6;overflow=hidden;labelBackgroundColor=none;" vertex="1" parent="341">
                    <mxGeometry x="127.86206896551732" width="140.54702194357344" height="30" as="geometry">
                        <mxRectangle width="140.54702194357344" height="30" as="alternateBounds"/>
                    </mxGeometry>
                </mxCell>
                <mxCell id="345" value="YES / YES" style="shape=partialRectangle;connectable=0;fillColor=none;top=0;left=0;bottom=0;right=0;align=left;spacingLeft=6;overflow=hidden;labelBackgroundColor=none;" vertex="1" parent="341">
                    <mxGeometry x="268.40909090909076" width="142.9387351778659" height="30" as="geometry">
                        <mxRectangle width="142.9387351778659" height="30" as="alternateBounds"/>
                    </mxGeometry>
                </mxCell>
                <mxCell id="346" value="" style="shape=partialRectangle;connectable=0;fillColor=none;top=0;left=0;bottom=0;right=0;align=left;spacingLeft=6;overflow=hidden;labelBackgroundColor=none;" vertex="1" parent="341">
                    <mxGeometry x="411.3478260869567" width="248.58074534161466" height="30" as="geometry">
                        <mxRectangle width="248.58074534161466" height="30" as="alternateBounds"/>
                    </mxGeometry>
                </mxCell>
                <mxCell id="347" value="" style="shape=tableRow;horizontal=0;startSize=0;swimlaneHead=0;swimlaneBody=0;fillColor=none;collapsible=0;dropTarget=0;points=[[0,0.5],[1,0.5]];portConstraint=eastwest;top=0;left=0;right=0;bottom=0;" vertex="1" parent="328">
                    <mxGeometry y="129" width="659.9285714285713" height="30" as="geometry"/>
                </mxCell>
                <mxCell id="348" style="shape=partialRectangle;connectable=0;fillColor=none;top=0;left=0;bottom=0;right=0;editable=1;overflow=hidden;" vertex="1" parent="347">
                    <mxGeometry width="63.93103448275866" height="30" as="geometry">
                        <mxRectangle width="63.93103448275866" height="30" as="alternateBounds"/>
                    </mxGeometry>
                </mxCell>
                <mxCell id="349" value="enum" style="shape=partialRectangle;connectable=0;fillColor=none;top=0;left=0;bottom=0;right=0;editable=1;overflow=hidden;" vertex="1" parent="347">
                    <mxGeometry x="63.93103448275866" width="63.93103448275866" height="30" as="geometry">
                        <mxRectangle width="63.93103448275866" height="30" as="alternateBounds"/>
                    </mxGeometry>
                </mxCell>
                <mxCell id="350" value="service" style="shape=partialRectangle;connectable=0;fillColor=none;top=0;left=0;bottom=0;right=0;align=left;spacingLeft=6;overflow=hidden;" vertex="1" parent="347">
                    <mxGeometry x="127.86206896551732" width="140.54702194357344" height="30" as="geometry">
                        <mxRectangle width="140.54702194357344" height="30" as="alternateBounds"/>
                    </mxGeometry>
                </mxCell>
                <mxCell id="351" value="NO / NO" style="shape=partialRectangle;connectable=0;fillColor=none;top=0;left=0;bottom=0;right=0;align=left;spacingLeft=6;overflow=hidden;" vertex="1" parent="347">
                    <mxGeometry x="268.40909090909076" width="142.9387351778659" height="30" as="geometry">
                        <mxRectangle width="142.9387351778659" height="30" as="alternateBounds"/>
                    </mxGeometry>
                </mxCell>
                <mxCell id="352" value="&quot;EMAIL&quot; or &quot;SMS&quot; or &quot;PUSH&quot;" style="shape=partialRectangle;connectable=0;fillColor=none;top=0;left=0;bottom=0;right=0;align=left;spacingLeft=6;overflow=hidden;" vertex="1" parent="347">
                    <mxGeometry x="411.3478260869567" width="248.58074534161466" height="30" as="geometry">
                        <mxRectangle width="248.58074534161466" height="30" as="alternateBounds"/>
                    </mxGeometry>
                </mxCell>
                <mxCell id="353" value="" style="shape=tableRow;horizontal=0;startSize=0;swimlaneHead=0;swimlaneBody=0;fillColor=none;collapsible=0;dropTarget=0;points=[[0,0.5],[1,0.5]];portConstraint=eastwest;top=0;left=0;right=0;bottom=0;" vertex="1" parent="328">
                    <mxGeometry y="159" width="659.9285714285713" height="30" as="geometry"/>
                </mxCell>
                <mxCell id="354" style="shape=partialRectangle;connectable=0;fillColor=none;top=0;left=0;bottom=0;right=0;editable=1;overflow=hidden;" vertex="1" parent="353">
                    <mxGeometry width="63.93103448275866" height="30" as="geometry">
                        <mxRectangle width="63.93103448275866" height="30" as="alternateBounds"/>
                    </mxGeometry>
                </mxCell>
                <mxCell id="355" value="bool" style="shape=partialRectangle;connectable=0;fillColor=none;top=0;left=0;bottom=0;right=0;editable=1;overflow=hidden;" vertex="1" parent="353">
                    <mxGeometry x="63.93103448275866" width="63.93103448275866" height="30" as="geometry">
                        <mxRectangle width="63.93103448275866" height="30" as="alternateBounds"/>
                    </mxGeometry>
                </mxCell>
                <mxCell id="356" value="is_verified" style="shape=partialRectangle;connectable=0;fillColor=none;top=0;left=0;bottom=0;right=0;align=left;spacingLeft=6;overflow=hidden;" vertex="1" parent="353">
                    <mxGeometry x="127.86206896551732" width="140.54702194357344" height="30" as="geometry">
                        <mxRectangle width="140.54702194357344" height="30" as="alternateBounds"/>
                    </mxGeometry>
                </mxCell>
                <mxCell id="357" value="NO / YES" style="shape=partialRectangle;connectable=0;fillColor=none;top=0;left=0;bottom=0;right=0;align=left;spacingLeft=6;overflow=hidden;" vertex="1" parent="353">
                    <mxGeometry x="268.40909090909076" width="142.9387351778659" height="30" as="geometry">
                        <mxRectangle width="142.9387351778659" height="30" as="alternateBounds"/>
                    </mxGeometry>
                </mxCell>
                <mxCell id="358" value="" style="shape=partialRectangle;connectable=0;fillColor=none;top=0;left=0;bottom=0;right=0;align=left;spacingLeft=6;overflow=hidden;" vertex="1" parent="353">
                    <mxGeometry x="411.3478260869567" width="248.58074534161466" height="30" as="geometry">
                        <mxRectangle width="248.58074534161466" height="30" as="alternateBounds"/>
                    </mxGeometry>
                </mxCell>
                <mxCell id="359" style="shape=tableRow;horizontal=0;startSize=0;swimlaneHead=0;swimlaneBody=0;fillColor=none;collapsible=0;dropTarget=0;points=[[0,0.5],[1,0.5]];portConstraint=eastwest;top=0;left=0;right=0;bottom=0;" vertex="1" parent="328">
                    <mxGeometry y="189" width="659.9285714285713" height="30" as="geometry"/>
                </mxCell>
                <mxCell id="360" style="shape=partialRectangle;connectable=0;fillColor=none;top=0;left=0;bottom=0;right=0;editable=1;overflow=hidden;" vertex="1" parent="359">
                    <mxGeometry width="63.93103448275866" height="30" as="geometry">
                        <mxRectangle width="63.93103448275866" height="30" as="alternateBounds"/>
                    </mxGeometry>
                </mxCell>
                <mxCell id="361" value="Datetime" style="shape=partialRectangle;connectable=0;fillColor=none;top=0;left=0;bottom=0;right=0;editable=1;overflow=hidden;" vertex="1" parent="359">
                    <mxGeometry x="63.93103448275866" width="63.93103448275866" height="30" as="geometry">
                        <mxRectangle width="63.93103448275866" height="30" as="alternateBounds"/>
                    </mxGeometry>
                </mxCell>
                <mxCell id="362" value="verified_at" style="shape=partialRectangle;connectable=0;fillColor=none;top=0;left=0;bottom=0;right=0;align=left;spacingLeft=6;overflow=hidden;" vertex="1" parent="359">
                    <mxGeometry x="127.86206896551732" width="140.54702194357344" height="30" as="geometry">
                        <mxRectangle width="140.54702194357344" height="30" as="alternateBounds"/>
                    </mxGeometry>
                </mxCell>
                <mxCell id="363" value="YES / YES" style="shape=partialRectangle;connectable=0;fillColor=none;top=0;left=0;bottom=0;right=0;align=left;spacingLeft=6;overflow=hidden;" vertex="1" parent="359">
                    <mxGeometry x="268.40909090909076" width="142.9387351778659" height="30" as="geometry">
                        <mxRectangle width="142.9387351778659" height="30" as="alternateBounds"/>
                    </mxGeometry>
                </mxCell>
                <mxCell id="364" value="" style="shape=partialRectangle;connectable=0;fillColor=none;top=0;left=0;bottom=0;right=0;align=left;spacingLeft=6;overflow=hidden;" vertex="1" parent="359">
                    <mxGeometry x="411.3478260869567" width="248.58074534161466" height="30" as="geometry">
                        <mxRectangle width="248.58074534161466" height="30" as="alternateBounds"/>
                    </mxGeometry>
                </mxCell>
                <mxCell id="377" style="edgeStyle=orthogonalEdgeStyle;html=1;exitX=0;exitY=0.5;exitDx=0;exitDy=0;entryX=1;entryY=0.5;entryDx=0;entryDy=0;" edge="1" parent="1" source="84" target="341">
                    <mxGeometry relative="1" as="geometry"/>
                </mxCell>
            </root>
        </mxGraphModel>
    </diagram>
</mxfile>